HIERARCHY
ROOT Hips
{
	OFFSET 0.000000  0.463670  0.080341
	CHANNELS 6 Xposition Yposition Zposition Zrotation Yrotation Xrotation 
	JOINT LHipJoint
	{
		OFFSET 0 0 0
		CHANNELS 3 Zrotation Yrotation Xrotation
		JOINT LeftUpLeg
		{
			OFFSET 0.949434 -0.248378 0.086503
			CHANNELS 3 Zrotation Yrotation Xrotation
			JOINT LeftLeg
			{
				OFFSET -0.076513 -3.879421 -0.177038
				CHANNELS 3 Zrotation Yrotation Xrotation
				JOINT LeftFoot
				{
					OFFSET -0.188964 -3.680973 -0.122632
					CHANNELS 3 Zrotation Yrotation Xrotation
					JOINT LeftToeBase
					{
						OFFSET 0.055451 -0.524480 1.120382
						CHANNELS 3 Zrotation Yrotation Xrotation
						End Site
						{
							OFFSET 0.007944 -0.006006 0.139660
						}
					}
				}
			}
		}
	}
	JOINT RHipJoint
	{
		OFFSET 0 0 0
		CHANNELS 3 Zrotation Yrotation Xrotation
		JOINT RightUpLeg
		{
			OFFSET -0.949434 -0.248378 0.086503
			CHANNELS 3 Zrotation Yrotation Xrotation
			JOINT RightLeg
			{
				OFFSET 0.076513 -3.879421 -0.177038
				CHANNELS 3 Zrotation Yrotation Xrotation
				JOINT RightFoot
				{
					OFFSET 0.188964 -3.680973 -0.122632
					CHANNELS 3 Zrotation Yrotation Xrotation
					JOINT RightToeBase
					{
						OFFSET -0.055451 -0.524480 1.120382
						CHANNELS 3 Zrotation Yrotation Xrotation
						End Site
						{
							OFFSET -0.007944 -0.006006 0.139660
						}
					}
				}
			}
		}
	}
	JOINT LowerBack
	{
		OFFSET 0 0 0
		CHANNELS 3 Zrotation Yrotation Xrotation
		JOINT Spine
		{
			OFFSET 0.000000 0.677144 0.028277
			CHANNELS 3 Zrotation Yrotation Xrotation
			JOINT Spine1
			{
				OFFSET 0.000000 2.156116 -0.508617
				CHANNELS 3 Zrotation Yrotation Xrotation
				JOINT Neck
				{
					OFFSET 0 0 0
					CHANNELS 3 Zrotation Yrotation Xrotation
					JOINT Neck1
					{
						OFFSET 0.000000 1.781871 0.216275
						CHANNELS 3 Zrotation Yrotation Xrotation
						JOINT Head
						{
							OFFSET 0.000000 1.015906 -0.026879
							CHANNELS 3 Zrotation Yrotation Xrotation
							End Site
							{
								OFFSET 0.000000 0.339197 0.983632
							}
						}
					}
				}
				JOINT LeftShoulder
				{
					OFFSET 0 0 0
					CHANNELS 3 Zrotation Yrotation Xrotation
					JOINT LeftArm
					{
						OFFSET 1.565866 1.184736 0.289545
						CHANNELS 3 Zrotation Yrotation Xrotation
						JOINT LeftForeArm
						{
							OFFSET 1.930940 -0.176441 -0.109244
							CHANNELS 3 Zrotation Yrotation Xrotation
							JOINT LeftHand
							{
								OFFSET 2.263412 -0.058986 0.122483
								CHANNELS 3 Zrotation Yrotation Xrotation
								JOINT LeftFingerBase
								{
									OFFSET 0 0 0
									CHANNELS 3 Zrotation Yrotation Xrotation
									JOINT LeftHandIndex1
									{
										OFFSET 0.944218 0.017559 0.358417
										CHANNELS 3 Zrotation Yrotation Xrotation
										End Site
										{
											OFFSET 0.237801 -0.022714 0.035813
										}
									}
								}
								JOINT LThumb
								{
									OFFSET 0 0 0
									CHANNELS 3 Zrotation Yrotation Xrotation
									End Site
									{
										OFFSET 0.234930 -0.092931 0.244282
									}
								}
							}
						}
					}
				}
				JOINT RightShoulder
				{
					OFFSET 0 0 0
					CHANNELS 3 Zrotation Yrotation Xrotation
					JOINT RightArm
					{
						OFFSET -1.565866 1.184736 0.289545
						CHANNELS 3 Zrotation Yrotation Xrotation
						JOINT RightForeArm
						{
							OFFSET -1.930940 -0.176441 -0.109244
							CHANNELS 3 Zrotation Yrotation Xrotation
							JOINT RightHand
							{
								OFFSET -2.263412 -0.058986 0.122483
								CHANNELS 3 Zrotation Yrotation Xrotation
								JOINT RightFingerBase
								{
									OFFSET 0 0 0
									CHANNELS 3 Zrotation Yrotation Xrotation
									JOINT RightHandIndex1
									{
										OFFSET -0.944218 0.017559 0.358417
										CHANNELS 3 Zrotation Yrotation Xrotation
										End Site
										{
											OFFSET -0.237801 -0.022714 0.035813
										}
									}
								}
								JOINT RThumb
								{
									OFFSET 0 0 0
									CHANNELS 3 Zrotation Yrotation Xrotation
									End Site
									{
										OFFSET -0.234930 -0.092931 0.244282
									}
								}
							}
						}
					}
				}
			}
		}
	}
}
MOTION
Frames: 10
Frame Time: .0083333
0.693910 8.929903 1.683678 1.500800 25.733101 16.290400 0.000000 0.000000 0.000000 11.833200 -25.855600 -50.319801 4.923000 13.296500 40.488800 -0.114000 -7.254100 -1.735300 0.010100 -0.648800 -1.782800 0.000000 0.000000 0.000000 -7.815800 -34.730000 6.237300 0.000000 -0.000000 0.000000 -1.325700 -6.933400 -25.257700 -0.045300 -1.373500 3.777200 0.989800 0.630600 0.437900 1.869000 1.033200 -6.109300 1.327500 0.534900 -6.610600 -1.312600 -9.538700 5.419500 11.363200 -15.653500 0.754900 2.245300 -6.195900 -1.305100 -0.000000 -0.000000 0.000000 -89.259201 -46.442501 83.528397 150.189896 -40.730000 -108.714500 -0.000000 0.000000 -10.446400 22.851500 7.197900 3.022500 -7.125000 0.000000 -0.000000 -3.371800 37.764099 0.601400 -0.000000 -0.000000 0.000000 37.216702 36.856499 0.496400 -107.110100 58.864399 -74.761299 0.000000 -0.000000 -34.029499 -14.907400 -26.534000 6.782100 7.125000 -0.000000 -0.000000 16.501801 -56.535000 -4.756800
0.682643 8.921254 1.684044 1.500300 27.130100 16.193800 0.000000 0.000000 0.000000 11.704500 -26.341700 -50.331100 4.904000 13.274900 40.406399 -0.141000 -7.649700 -1.248700 0.010500 -0.661700 -1.818400 0.000000 0.000000 0.000000 -7.352200 -35.999802 6.217200 0.000000 0.000000 -0.000000 -1.359600 -6.844200 -25.457701 -0.074200 -1.757500 4.835800 1.251000 1.020800 0.394000 1.914700 1.572800 -6.085700 1.196300 0.791600 -6.564600 -1.888400 -10.083600 5.647200 11.568400 -16.310301 0.505699 2.325000 -6.541500 -1.319600 -0.000000 0.000000 0.000000 -88.818802 -46.616699 83.104897 149.899796 -40.979099 -108.524696 -0.000000 0.000000 -9.859500 22.557100 7.328000 3.032800 -7.125000 0.000000 -0.000000 -3.635500 37.884701 0.637800 -0.000000 0.000000 0.000000 33.918598 37.739601 -2.430800 -94.270699 59.931000 -63.697601 0.000000 -0.000000 -30.955099 -15.123200 -26.775600 6.941500 7.125000 -0.000000 -0.000000 16.421600 -56.812901 -4.844200
0.671255 8.914982 1.683861 1.492100 28.255600 16.077700 0.000000 0.000000 0.000000 11.548800 -26.615801 -50.299999 4.882500 13.250300 40.312698 -0.165200 -8.002100 -0.826700 0.011000 -0.677600 -1.862000 0.000000 0.000000 0.000000 -6.965000 -37.004700 6.219500 0.000000 -0.000000 0.000000 -1.384900 -6.798500 -25.619301 -0.101100 -2.050000 5.644000 1.444300 1.407300 0.369300 1.937000 2.103500 -6.073000 1.079800 1.046700 -6.538800 -2.299400 -10.520400 5.901500 11.713300 -16.849501 0.374201 2.375500 -6.820200 -1.321300 0.000000 0.000000 0.000000 -88.352699 -46.692200 82.655502 149.647202 -41.193901 -108.358704 -0.000000 0.000000 -9.239700 22.285101 7.492800 3.059100 -7.125000 0.000000 -0.000000 -3.884300 38.043499 0.666500 0.000000 0.000000 0.000000 30.692101 38.710400 -5.275700 -79.986099 59.617699 -51.338799 0.000000 -0.000000 -27.690201 -14.847600 -27.168600 6.901900 7.125000 -0.000000 -0.000000 16.940201 -57.133701 -5.135700
0.660049 8.911510 1.683252 1.487900 29.121099 15.969300 0.000000 0.000000 0.000000 11.372900 -26.707600 -50.245300 4.856900 13.220900 40.200901 -0.186500 -8.312400 -0.474200 0.012000 -0.706900 -1.942500 0.000000 0.000000 0.000000 -6.655900 -37.753899 6.225000 0.000000 -0.000000 0.000000 -1.399500 -6.800400 -25.730400 -0.122000 -2.251700 6.201800 1.587700 1.789800 0.365700 1.923300 2.625100 -6.074400 0.954000 1.298700 -6.537500 -2.572700 -10.861000 6.107500 11.813400 -17.292500 0.393499 2.399900 -7.036900 -1.281700 0.000000 -0.000000 0.000000 -87.904900 -46.699100 82.227203 149.431107 -41.376099 -108.216103 -0.000000 0.000000 -8.648700 22.037100 7.649300 3.084100 -7.125000 0.000000 -0.000000 -4.112800 38.194401 0.690600 0.000000 -0.000000 0.000000 27.564999 39.736500 -8.061700 -65.892403 57.685902 -39.284401 0.000000 -0.000000 -24.459499 -14.169100 -27.613400 6.674300 7.125000 -0.000000 -0.000000 17.915100 -57.416100 -5.567300
0.649330 8.910719 1.682460 1.483700 29.748100 15.877200 0.000000 0.000000 0.000000 11.200700 -26.659201 -50.180599 4.827800 13.187200 40.073399 -0.203200 -8.552000 -0.196100 0.013600 -0.752600 -2.068300 0.000000 0.000000 0.000000 -6.414600 -38.265800 6.227700 0.000000 -0.000000 0.000000 -1.403800 -6.842600 -25.789499 -0.134200 -2.361100 6.504800 1.699400 2.159700 0.370000 1.871100 3.126500 -6.089800 0.806900 1.540800 -6.552100 -2.724600 -11.109100 6.267300 11.893400 -17.643900 0.546200 2.408800 -7.193400 -1.204900 -0.000000 -0.000000 0.000000 -87.497902 -46.657501 81.837303 149.255798 -41.522800 -108.100098 -0.000000 0.000000 -8.162200 21.801600 7.780000 3.099400 -7.125000 0.000000 -0.000000 -4.328500 38.317902 0.713900 -0.000000 -0.000000 0.000000 24.647701 40.779701 -10.765600 -53.576099 54.339802 -29.055599 0.000000 -0.000000 -21.452999 -13.352500 -27.930201 6.344000 7.125000 -0.000000 -0.000000 18.959299 -57.543098 -5.966100
0.639099 8.912180 1.681364 1.465200 30.160900 15.801100 0.000000 0.000000 0.000000 11.064600 -26.514099 -50.119301 4.796000 13.150300 39.933601 -0.215900 -8.730600 0.018900 0.015600 -0.805900 -2.214800 0.000000 0.000000 0.000000 -6.219000 -38.558701 6.221300 0.000000 -0.000000 0.000000 -1.399000 -6.917500 -25.801100 -0.137800 -2.392900 6.592700 1.808700 2.505600 0.385100 1.783400 3.593900 -6.118000 0.625700 1.764500 -6.581300 -2.777000 -11.265400 6.361600 11.970700 -17.904100 0.824800 2.410700 -7.289200 -1.086500 0.000000 0.000000 0.000000 -87.108597 -46.601799 81.453499 149.130707 -41.626900 -108.017097 -0.000000 0.000000 -7.856300 21.575100 7.852500 3.092400 -7.125000 0.000000 -0.000000 -4.530700 38.379299 0.740500 0.000000 0.000000 0.000000 22.106300 41.808300 -13.333100 -43.815399 50.174801 -21.325001 0.000000 -0.000000 -18.813999 -12.912000 -27.925501 6.128000 7.125000 -0.000000 -0.000000 19.407900 -57.444901 -6.068000
0.629354 8.915469 1.679964 1.415600 30.389700 15.732600 0.000000 0.000000 0.000000 10.998500 -26.319901 -50.066299 4.762500 13.111300 39.786499 -0.224400 -8.843400 0.175200 0.017700 -0.860100 -2.364000 0.000000 0.000000 0.000000 -6.045000 -38.658501 6.205200 0.000000 -0.000000 0.000000 -1.387000 -7.015700 -25.775101 -0.133000 -2.350300 6.474700 1.936100 2.817700 0.407900 1.672000 4.015100 -6.150300 0.412200 1.963100 -6.613300 -2.746000 -11.334700 6.375700 12.050400 -18.074600 1.202400 2.408800 -7.326400 -0.931200 0.000000 0.000000 0.000000 -86.761497 -46.567402 81.094299 149.064407 -41.681900 -107.973000 -0.000000 0.000000 -7.742700 21.376801 7.901000 3.079900 -7.125000 0.000000 -0.000000 -4.706100 38.416901 0.765000 0.000000 0.000000 0.000000 20.082500 42.787601 -15.718900 -36.611900 45.929401 -15.960600 0.000000 -0.000000 -16.624800 -13.354000 -27.421101 6.238900 7.125000 -0.000000 -0.000000 18.630100 -57.061401 -5.638700
0.619976 8.920158 1.678258 1.326200 30.455500 15.665400 0.000000 0.000000 0.000000 11.028100 -26.120701 -50.018799 4.728000 13.070800 39.633900 -0.227500 -8.872700 0.273000 0.020000 -0.913000 -2.509500 0.000000 0.000000 0.000000 -5.877400 -38.584801 6.181200 0.000000 -0.000000 0.000000 -1.370800 -7.123300 -25.723900 -0.123400 -2.265000 6.238500 2.094300 3.097400 0.435000 1.535100 4.392300 -6.181600 0.157700 2.137000 -6.639100 -2.628900 -11.326900 6.343000 12.148600 -18.164301 1.617201 2.409700 -7.312600 -0.765200 -0.000000 -0.000000 0.000000 -86.470802 -46.572300 80.786400 149.062607 -41.683399 -107.971802 -0.000000 0.000000 -7.821900 21.205500 7.926800 3.062700 -7.125000 0.000000 -0.000000 -4.855900 38.432201 0.787700 -0.000000 -0.000000 0.000000 18.720400 43.675900 -17.893999 -31.642401 42.260201 -12.499700 0.000000 -0.000000 -14.840300 -14.724600 -26.422100 6.670000 7.125000 -0.000000 -0.000000 16.624001 -56.389599 -4.734300
0.610901 8.926249 1.676309 1.205200 30.368900 15.605900 0.000000 0.000000 0.000000 11.156700 -25.942400 -49.974800 4.691700 13.028000 39.473400 -0.224500 -8.800100 0.311300 0.022400 -0.966800 -2.657500 0.000000 0.000000 0.000000 -5.712700 -38.348801 6.143300 0.000000 0.000000 -0.000000 -1.350700 -7.250000 -25.656500 -0.111100 -2.148900 5.917200 2.271900 3.343300 0.467400 1.375300 4.723000 -6.208600 -0.128200 2.285800 -6.656400 -2.420900 -11.244900 6.257700 12.252000 -18.171400 2.041300 2.408600 -7.249300 -0.599400 0.000000 -0.000000 0.000000 -86.241096 -46.625599 80.533501 149.121796 -41.634399 -108.011101 -0.000000 0.000000 -8.057500 21.067400 7.940800 3.046300 -7.125000 0.000000 -0.000000 -4.975800 38.437401 0.806600 0.000000 -0.000000 0.000000 18.087500 44.451099 -19.760300 -28.535801 39.604801 -10.463500 0.000000 -0.000000 -13.337700 -16.712099 -25.139200 7.268800 7.125000 -0.000000 -0.000000 13.894400 -55.540199 -3.645400
0.601949 8.933617 1.674056 1.069100 30.134501 15.560900 0.000000 0.000000 0.000000 11.372700 -25.800699 -49.924000 4.652800 12.981800 39.300301 -0.213700 -8.594500 0.282700 0.025700 -1.035200 -2.845600 0.000000 0.000000 0.000000 -5.562300 -37.960201 6.095500 0.000000 -0.000000 0.000000 -1.328000 -7.395900 -25.582600 -0.098100 -2.019400 5.559300 2.448600 3.555800 0.509400 1.194100 5.007100 -6.229600 -0.433200 2.410600 -6.668000 -2.125200 -11.094700 6.123500 12.348400 -18.097799 2.453600 2.401700 -7.140700 -0.443000 0.000000 0.000000 0.000000 -86.078201 -46.720699 80.348900 149.234406 -41.540699 -108.085899 -0.000000 0.000000 -8.377400 20.987400 7.941900 3.034000 -7.125000 0.000000 -0.000000 -5.044400 38.432701 0.818400 0.000000 0.000000 0.000000 18.176600 45.084801 -21.134199 -26.961000 38.141998 -9.475000 0.000000 -0.000000 -12.037200 -18.700100 -23.858101 7.795700 7.125000 -0.000000 -0.000000 11.252900 -54.655102 -2.694600
